<svg width="18" height="21" viewBox="0 0 18 21" fill="none" xmlns="http://www.w3.org/2000/svg">
<path d="M9 0C11.3869 0 13.6761 0.98741 15.364 2.74501C17.0518 4.50261 18 6.88643 18 9.37206C18 12.5731 16.324 15.1931 14.558 17.0728C13.6755 18.0015 12.7128 18.8437 11.682 19.5886L11.256 19.8906L11.056 20.0291L10.679 20.279L10.343 20.4925L9.927 20.7445C9.64451 20.912 9.32505 21 9 21C8.67495 21 8.35549 20.912 8.073 20.7445L7.657 20.4925L7.137 20.1593L6.945 20.0291L6.535 19.7448C5.42298 18.961 4.38707 18.0661 3.442 17.0728C1.676 15.1921 0 12.5731 0 9.37206C0 6.88643 0.948211 4.50261 2.63604 2.74501C4.32387 0.98741 6.61305 0 9 0ZM9 6.24804C8.60603 6.24804 8.21593 6.32884 7.85195 6.48584C7.48797 6.64283 7.15726 6.87295 6.87868 7.16304C6.6001 7.45313 6.37913 7.79752 6.22836 8.17654C6.0776 8.55557 6 8.9618 6 9.37206C6 9.78231 6.0776 10.1885 6.22836 10.5676C6.37913 10.9466 6.6001 11.291 6.87868 11.5811C7.15726 11.8712 7.48797 12.1013 7.85195 12.2583C8.21593 12.4153 8.60603 12.4961 9 12.4961C9.79565 12.4961 10.5587 12.1669 11.1213 11.5811C11.6839 10.9952 12 10.2006 12 9.37206C12 8.54351 11.6839 7.74891 11.1213 7.16304C10.5587 6.57717 9.79565 6.24804 9 6.24804Z" fill="#FCF9FA"/>
</svg>
