<svg width="237" height="34" viewBox="0 0 237 34" fill="none" xmlns="http://www.w3.org/2000/svg">
<path d="M48.8235 34H11.1765C5.00388 34 0 28.9259 0 22.6667C0 16.8103 4.38048 11.9914 10.0002 11.3954C10.0001 11.3747 10 11.354 10 11.3333C10 5.07411 15.0039 0 21.1765 0C25.1308 0 28.6054 2.08237 30.5921 5.22469C32.167 4.36499 33.9685 3.87719 35.8824 3.87719C40.8042 3.87719 44.9831 7.10339 46.4744 11.5841C47.2319 11.4198 48.0177 11.3333 48.8235 11.3333C54.9961 11.3333 60 16.4074 60 22.6667C60 28.9259 54.9961 34 48.8235 34Z" fill="#464646"/>
<path d="M237 19.0655C237 19.6055 236.964 20.0915 236.892 20.5235H225.957C226.047 21.6035 226.425 22.4495 227.091 23.0615C227.757 23.6735 228.576 23.9795 229.548 23.9795C230.952 23.9795 231.951 23.3765 232.545 22.1705H236.622C236.19 23.6105 235.362 24.7985 234.138 25.7345C232.914 26.6525 231.411 27.1115 229.629 27.1115C228.189 27.1115 226.893 26.7965 225.741 26.1665C224.607 25.5185 223.716 24.6095 223.068 23.4395C222.438 22.2695 222.123 20.9195 222.123 19.3895C222.123 17.8415 222.438 16.4825 223.068 15.3125C223.698 14.1425 224.58 13.2425 225.714 12.6125C226.848 11.9825 228.153 11.6675 229.629 11.6675C231.051 11.6675 232.32 11.9735 233.436 12.5855C234.57 13.1975 235.443 14.0705 236.055 15.2045C236.685 16.3205 237 17.6075 237 19.0655ZM233.085 17.9855C233.067 17.0135 232.716 16.2395 232.032 15.6635C231.348 15.0695 230.511 14.7725 229.521 14.7725C228.585 14.7725 227.793 15.0605 227.145 15.6365C226.515 16.1945 226.128 16.9775 225.984 17.9855H233.085Z" fill="#464646"/>
<path d="M213.379 11.6945C215.215 11.6945 216.691 12.2615 217.807 13.3955C218.941 14.5115 219.508 16.0775 219.508 18.0935V26.8685H215.728V18.6065C215.728 17.4365 215.431 16.5455 214.837 15.9335C214.243 15.3035 213.433 14.9885 212.407 14.9885C211.381 14.9885 210.562 15.3035 209.95 15.9335C209.356 16.5455 209.059 17.4365 209.059 18.6065V26.8685H205.279V18.6065C205.279 17.4365 204.982 16.5455 204.388 15.9335C203.794 15.3035 202.984 14.9885 201.958 14.9885C200.914 14.9885 200.086 15.3035 199.474 15.9335C198.88 16.5455 198.583 17.4365 198.583 18.6065V26.8685H194.803V11.9105H198.583V13.7195C199.069 13.0895 199.69 12.5945 200.446 12.2345C201.22 11.8745 202.066 11.6945 202.984 11.6945C204.154 11.6945 205.198 11.9465 206.116 12.4505C207.034 12.9365 207.745 13.6385 208.249 14.5565C208.735 13.6925 209.437 12.9995 210.355 12.4775C211.291 11.9555 212.299 11.6945 213.379 11.6945Z" fill="#464646"/>
<path d="M189.464 27.0575C188.78 27.0575 188.212 26.8505 187.762 26.4365C187.33 26.0045 187.115 25.4735 187.115 24.8435C187.115 24.2135 187.33 23.6915 187.762 23.2775C188.212 22.8455 188.78 22.6295 189.464 22.6295C190.13 22.6295 190.678 22.8455 191.11 23.2775C191.542 23.6915 191.758 24.2135 191.758 24.8435C191.758 25.4735 191.542 26.0045 191.11 26.4365C190.678 26.8505 190.13 27.0575 189.464 27.0575Z" fill="#464646"/>
<path d="M180.654 14.2325C181.14 13.4405 181.77 12.8195 182.544 12.3695C183.336 11.9195 184.236 11.6945 185.244 11.6945V15.6635H184.245C183.057 15.6635 182.157 15.9425 181.545 16.5005C180.951 17.0585 180.654 18.0305 180.654 19.4165V26.8685H176.874V11.9105H180.654V14.2325Z" fill="#464646"/>
<path d="M174.114 19.0655C174.114 19.6055 174.078 20.0915 174.006 20.5235H163.071C163.161 21.6035 163.539 22.4495 164.205 23.0615C164.871 23.6735 165.69 23.9795 166.662 23.9795C168.066 23.9795 169.065 23.3765 169.659 22.1705H173.736C173.304 23.6105 172.476 24.7985 171.252 25.7345C170.028 26.6525 168.525 27.1115 166.743 27.1115C165.303 27.1115 164.007 26.7965 162.855 26.1665C161.721 25.5185 160.83 24.6095 160.182 23.4395C159.552 22.2695 159.237 20.9195 159.237 19.3895C159.237 17.8415 159.552 16.4825 160.182 15.3125C160.812 14.1425 161.694 13.2425 162.828 12.6125C163.962 11.9825 165.267 11.6675 166.743 11.6675C168.165 11.6675 169.434 11.9735 170.55 12.5855C171.684 13.1975 172.557 14.0705 173.169 15.2045C173.799 16.3205 174.114 17.6075 174.114 19.0655ZM170.199 17.9855C170.181 17.0135 169.83 16.2395 169.146 15.6635C168.462 15.0695 167.625 14.7725 166.635 14.7725C165.699 14.7725 164.907 15.0605 164.259 15.6365C163.629 16.1945 163.242 16.9775 163.098 17.9855H170.199Z" fill="#464646"/>
<path d="M150.783 11.6945C151.917 11.6945 152.925 11.9465 153.807 12.4505C154.689 12.9365 155.373 13.6655 155.859 14.6375C156.363 15.5915 156.615 16.7435 156.615 18.0935V26.8685H152.835V18.6065C152.835 17.4185 152.538 16.5095 151.944 15.8795C151.35 15.2315 150.54 14.9075 149.514 14.9075C148.47 14.9075 147.642 15.2315 147.03 15.8795C146.436 16.5095 146.139 17.4185 146.139 18.6065V26.8685H142.359V6.88849H146.139V13.7735C146.625 13.1255 147.273 12.6215 148.083 12.2615C148.893 11.8835 149.793 11.6945 150.783 11.6945Z" fill="#464646"/>
<path d="M136.292 15.0155V22.2515C136.292 22.7555 136.409 23.1245 136.643 23.3585C136.895 23.5745 137.309 23.6825 137.885 23.6825H139.64V26.8685H137.264C134.078 26.8685 132.485 25.3205 132.485 22.2245V15.0155H130.703V11.9105H132.485V8.21149H136.292V11.9105H139.64V15.0155H136.292Z" fill="#464646"/>
<path d="M112.62 19.3355C112.62 17.8235 112.917 16.4825 113.511 15.3125C114.123 14.1425 114.942 13.2425 115.968 12.6125C117.012 11.9825 118.173 11.6675 119.451 11.6675C120.567 11.6675 121.539 11.8925 122.367 12.3425C123.213 12.7925 123.888 13.3595 124.392 14.0435V11.9105H128.199V26.8685H124.392V24.6815C123.906 25.3835 123.231 25.9685 122.367 26.4365C121.521 26.8865 120.54 27.1115 119.424 27.1115C118.164 27.1115 117.012 26.7875 115.968 26.1395C114.942 25.4915 114.123 24.5825 113.511 23.4125C112.917 22.2245 112.62 20.8655 112.62 19.3355ZM124.392 19.3895C124.392 18.4715 124.212 17.6885 123.852 17.0405C123.492 16.3745 123.006 15.8705 122.394 15.5285C121.782 15.1685 121.125 14.9885 120.423 14.9885C119.721 14.9885 119.073 15.1595 118.479 15.5015C117.885 15.8435 117.399 16.3475 117.021 17.0135C116.661 17.6615 116.481 18.4355 116.481 19.3355C116.481 20.2355 116.661 21.0275 117.021 21.7115C117.399 22.3775 117.885 22.8905 118.479 23.2505C119.091 23.6105 119.739 23.7905 120.423 23.7905C121.125 23.7905 121.782 23.6195 122.394 23.2775C123.006 22.9175 123.492 22.4135 123.852 21.7655C124.212 21.0995 124.392 20.3075 124.392 19.3895Z" fill="#464646"/>
<path d="M110.833 19.0655C110.833 19.6055 110.797 20.0915 110.725 20.5235H99.7903C99.8803 21.6035 100.258 22.4495 100.924 23.0615C101.59 23.6735 102.409 23.9795 103.381 23.9795C104.785 23.9795 105.784 23.3765 106.378 22.1705H110.455C110.023 23.6105 109.195 24.7985 107.971 25.7345C106.747 26.6525 105.244 27.1115 103.462 27.1115C102.022 27.1115 100.726 26.7965 99.5743 26.1665C98.4403 25.5185 97.5493 24.6095 96.9013 23.4395C96.2713 22.2695 95.9563 20.9195 95.9563 19.3895C95.9563 17.8415 96.2713 16.4825 96.9013 15.3125C97.5313 14.1425 98.4133 13.2425 99.5473 12.6125C100.681 11.9825 101.986 11.6675 103.462 11.6675C104.884 11.6675 106.153 11.9735 107.269 12.5855C108.403 13.1975 109.276 14.0705 109.888 15.2045C110.518 16.3205 110.833 17.6075 110.833 19.0655ZM106.918 17.9855C106.9 17.0135 106.549 16.2395 105.865 15.6635C105.181 15.0695 104.344 14.7725 103.354 14.7725C102.418 14.7725 101.626 15.0605 100.978 15.6365C100.348 16.1945 99.9613 16.9775 99.8173 17.9855H106.918Z" fill="#464646"/>
<path d="M94.46 8.02249L89.195 26.8685H84.74L81.203 13.4495L77.504 26.8685L73.076 26.8955L68 8.02249H72.05L75.371 22.6565L79.205 8.02249H83.417L87.035 22.5755L90.383 8.02249H94.46Z" fill="#464646"/>
</svg>
